<?xml version="1.0" encoding="UTF-8" standalone="no"?>
<!DOCTYPE svg PUBLIC "-//W3C//DTD SVG 1.1//EN"
 "http://www.w3.org/Graphics/SVG/1.1/DTD/svg11.dtd">
<!-- Generated by graphviz version 2.40.1 (20161225.0304)
 -->
<!-- Title: dependencies Pages: 1 -->
<svg width="504pt" height="211pt"
 viewBox="0.00 0.00 504.00 211.00" xmlns="http://www.w3.org/2000/svg" xmlns:xlink="http://www.w3.org/1999/xlink">
<g id="graph0" class="graph" transform="scale(1 1) rotate(0) translate(4 207)">
<title>dependencies</title>
<polygon fill="#ffffff" stroke="transparent" points="-4,4 -4,-207 500,-207 500,4 -4,4"/>
<text text-anchor="start" x="227.0091" y="-42.4" font-family="sans-serif" font-weight="bold" font-size="14.00" fill="#000000">Legend</text>
<polygon fill="#ffffb3" stroke="transparent" points="14,-10 14,-30 34,-30 34,-10 14,-10"/>
<text text-anchor="start" x="37.629" y="-15.4" font-family="sans-serif" font-size="14.00" fill="#000000"> &#160;Declarations</text>
<polygon fill="#8dd3c7" stroke="transparent" points="127,-10 127,-30 147,-30 147,-10 127,-10"/>
<text text-anchor="start" x="150.7251" y="-15.4" font-family="sans-serif" font-size="14.00" fill="#000000"> &#160;Module</text>
<polygon fill="#80b1d3" stroke="transparent" points="213,-10 213,-30 233,-30 233,-10 213,-10"/>
<text text-anchor="start" x="236.7812" y="-15.4" font-family="sans-serif" font-size="14.00" fill="#000000"> &#160;Bootstrap</text>
<polygon fill="#fdb462" stroke="transparent" points="310,-10 310,-30 330,-30 330,-10 310,-10"/>
<text text-anchor="start" x="333.6732" y="-15.4" font-family="sans-serif" font-size="14.00" fill="#000000"> &#160;Providers</text>
<polygon fill="#fb8072" stroke="transparent" points="406,-10 406,-30 426,-30 426,-10 406,-10"/>
<text text-anchor="start" x="429.7258" y="-15.4" font-family="sans-serif" font-size="14.00" fill="#000000"> &#160;Exports</text>
<g id="clust1" class="cluster">
<title>cluster_V1Module</title>
<polygon fill="none" stroke="#000000" stroke-dasharray="1,5" points="78,-70 78,-195 418,-195 418,-70 78,-70"/>
</g>
<g id="clust3" class="cluster">
<title>cluster_V1Module_imports</title>
<polygon fill="none" stroke="#000000" points="86,-78 86,-130 410,-130 410,-78 86,-78"/>
</g>
<!-- AuthModule -->
<g id="node1" class="node">
<title>AuthModule</title>
<polygon fill="#8dd3c7" stroke="#000000" points="401.5482,-122 398.5482,-126 377.5482,-126 374.5482,-122 314.4518,-122 314.4518,-86 401.5482,-86 401.5482,-122"/>
<text text-anchor="middle" x="358" y="-99.8" font-family="Times,serif" font-size="14.00" fill="#000000">AuthModule</text>
</g>
<!-- V1Module -->
<g id="node4" class="node">
<title>V1Module</title>
<polygon fill="#8dd3c7" stroke="#000000" points="288.1572,-187 285.1572,-191 264.1572,-191 261.1572,-187 211.8428,-187 211.8428,-151 288.1572,-151 288.1572,-187"/>
<text text-anchor="middle" x="250" y="-164.8" font-family="Times,serif" font-size="14.00" fill="#000000">V1Module</text>
</g>
<!-- AuthModule&#45;&gt;V1Module -->
<g id="edge1" class="edge">
<title>AuthModule&#45;&gt;V1Module</title>
<path fill="none" stroke="#000000" d="M358,-122.1061C358,-141.3391 358,-169 358,-169 358,-169 298.3809,-169 298.3809,-169"/>
<polygon fill="#000000" stroke="#000000" points="298.3809,-165.5001 288.3809,-169 298.3808,-172.5001 298.3809,-165.5001"/>
</g>
<!-- TasksModule -->
<g id="node2" class="node">
<title>TasksModule</title>
<polygon fill="#8dd3c7" stroke="#000000" points="296.2064,-122 293.2064,-126 272.2064,-126 269.2064,-122 203.7936,-122 203.7936,-86 296.2064,-86 296.2064,-122"/>
<text text-anchor="middle" x="250" y="-99.8" font-family="Times,serif" font-size="14.00" fill="#000000">TasksModule</text>
</g>
<!-- TasksModule&#45;&gt;V1Module -->
<g id="edge2" class="edge">
<title>TasksModule&#45;&gt;V1Module</title>
<path fill="none" stroke="#000000" d="M250,-122.1061C250,-122.1061 250,-140.991 250,-140.991"/>
<polygon fill="#000000" stroke="#000000" points="246.5001,-140.9909 250,-150.991 253.5001,-140.991 246.5001,-140.9909"/>
</g>
<!-- UsersModule -->
<g id="node3" class="node">
<title>UsersModule</title>
<polygon fill="#8dd3c7" stroke="#000000" points="185.9218,-122 182.9218,-126 161.9218,-126 158.9218,-122 94.0782,-122 94.0782,-86 185.9218,-86 185.9218,-122"/>
<text text-anchor="middle" x="140" y="-99.8" font-family="Times,serif" font-size="14.00" fill="#000000">UsersModule</text>
</g>
<!-- UsersModule&#45;&gt;V1Module -->
<g id="edge3" class="edge">
<title>UsersModule&#45;&gt;V1Module</title>
<path fill="none" stroke="#000000" d="M140,-122.1061C140,-141.3391 140,-169 140,-169 140,-169 201.836,-169 201.836,-169"/>
<polygon fill="#000000" stroke="#000000" points="201.8361,-172.5001 211.836,-169 201.836,-165.5001 201.8361,-172.5001"/>
</g>
</g>
</svg>
