<?xml version="1.0" encoding="UTF-8" standalone="no"?>
<!DOCTYPE svg PUBLIC "-//W3C//DTD SVG 1.1//EN"
 "http://www.w3.org/Graphics/SVG/1.1/DTD/svg11.dtd">
<!-- Generated by graphviz version 2.40.1 (20161225.0304)
 -->
<!-- Title: dependencies Pages: 1 -->
<svg width="898pt" height="282pt"
 viewBox="0.00 0.00 898.00 282.00" xmlns="http://www.w3.org/2000/svg" xmlns:xlink="http://www.w3.org/1999/xlink">
<g id="graph0" class="graph" transform="scale(1 1) rotate(0) translate(4 278)">
<title>dependencies</title>
<polygon fill="#ffffff" stroke="transparent" points="-4,4 -4,-278 894,-278 894,4 -4,4"/>
<text text-anchor="start" x="424.0091" y="-42.4" font-family="sans-serif" font-weight="bold" font-size="14.00" fill="#000000">Legend</text>
<polygon fill="#ffffb3" stroke="transparent" points="211,-10 211,-30 231,-30 231,-10 211,-10"/>
<text text-anchor="start" x="234.629" y="-15.4" font-family="sans-serif" font-size="14.00" fill="#000000"> &#160;Declarations</text>
<polygon fill="#8dd3c7" stroke="transparent" points="324,-10 324,-30 344,-30 344,-10 324,-10"/>
<text text-anchor="start" x="347.7251" y="-15.4" font-family="sans-serif" font-size="14.00" fill="#000000"> &#160;Module</text>
<polygon fill="#80b1d3" stroke="transparent" points="410,-10 410,-30 430,-30 430,-10 410,-10"/>
<text text-anchor="start" x="433.7812" y="-15.4" font-family="sans-serif" font-size="14.00" fill="#000000"> &#160;Bootstrap</text>
<polygon fill="#fdb462" stroke="transparent" points="507,-10 507,-30 527,-30 527,-10 507,-10"/>
<text text-anchor="start" x="530.6732" y="-15.4" font-family="sans-serif" font-size="14.00" fill="#000000"> &#160;Providers</text>
<polygon fill="#fb8072" stroke="transparent" points="603,-10 603,-30 623,-30 623,-10 603,-10"/>
<text text-anchor="start" x="626.7258" y="-15.4" font-family="sans-serif" font-size="14.00" fill="#000000"> &#160;Exports</text>
<g id="clust1" class="cluster">
<title>cluster_AuthModule</title>
<polygon fill="none" stroke="#000000" stroke-dasharray="1,5" points="8,-70 8,-198 406,-198 406,-70 8,-70"/>
</g>
<g id="clust3" class="cluster">
<title>cluster_AuthModule_imports</title>
<polygon fill="none" stroke="#000000" points="290,-78 290,-130 398,-130 398,-78 290,-78"/>
</g>
<g id="clust6" class="cluster">
<title>cluster_AuthModule_providers</title>
<polygon fill="none" stroke="#000000" points="16,-78 16,-130 282,-130 282,-78 16,-78"/>
</g>
<g id="clust7" class="cluster">
<title>cluster_TasksModule</title>
<polygon fill="none" stroke="#000000" stroke-dasharray="1,5" points="724,-70 724,-198 882,-198 882,-70 724,-70"/>
</g>
<g id="clust12" class="cluster">
<title>cluster_TasksModule_providers</title>
<polygon fill="none" stroke="#000000" points="732,-78 732,-130 874,-130 874,-78 732,-78"/>
</g>
<g id="clust13" class="cluster">
<title>cluster_UsersModule</title>
<polygon fill="none" stroke="#000000" stroke-dasharray="1,5" points="414,-138 414,-206 688,-206 688,-138 414,-138"/>
</g>
<g id="clust16" class="cluster">
<title>cluster_UsersModule_exports</title>
<polygon fill="none" stroke="#000000" points="570,-146 570,-198 680,-198 680,-146 570,-146"/>
</g>
<g id="clust18" class="cluster">
<title>cluster_UsersModule_providers</title>
<polygon fill="none" stroke="#000000" points="422,-146 422,-198 562,-198 562,-146 422,-146"/>
</g>
<g id="clust19" class="cluster">
<title>cluster_V1Module</title>
<polygon fill="none" stroke="#000000" stroke-dasharray="1,5" points="660,-214 660,-266 752,-266 752,-214 660,-214"/>
</g>
<!-- UsersModule -->
<g id="node1" class="node">
<title>UsersModule</title>
<polygon fill="#8dd3c7" stroke="#000000" points="389.9218,-122 386.9218,-126 365.9218,-126 362.9218,-122 298.0782,-122 298.0782,-86 389.9218,-86 389.9218,-122"/>
<text text-anchor="middle" x="344" y="-99.8" font-family="Times,serif" font-size="14.00" fill="#000000">UsersModule</text>
</g>
<!-- AuthModule -->
<g id="node2" class="node">
<title>AuthModule</title>
<polygon fill="#8dd3c7" stroke="#000000" points="322.5482,-190 319.5482,-194 298.5482,-194 295.5482,-190 235.4518,-190 235.4518,-154 322.5482,-154 322.5482,-190"/>
<text text-anchor="middle" x="279" y="-167.8" font-family="Times,serif" font-size="14.00" fill="#000000">AuthModule</text>
</g>
<!-- UsersModule&#45;&gt;AuthModule -->
<g id="edge1" class="edge">
<title>UsersModule&#45;&gt;AuthModule</title>
<path fill="none" stroke="#000000" d="M310.5316,-122.2228C310.5316,-122.2228 310.5316,-143.7269 310.5316,-143.7269"/>
<polygon fill="#000000" stroke="#000000" points="307.0316,-143.7269 310.5316,-153.7269 314.0316,-143.727 307.0316,-143.7269"/>
</g>
<!-- UsersService  -->
<g id="node7" class="node">
<title>UsersService </title>
<polygon fill="#fb8072" stroke="#000000" points="671.8493,-190 578.1507,-190 578.1507,-154 671.8493,-154 671.8493,-190"/>
<text text-anchor="middle" x="625" y="-167.8" font-family="Times,serif" font-size="14.00" fill="#000000">UsersService </text>
</g>
<!-- UsersModule&#45;&gt;UsersService  -->
<g id="edge5" class="edge">
<title>UsersModule&#45;&gt;UsersService </title>
<path fill="none" stroke="#000000" stroke-dasharray="5,2" d="M389.7729,-104C469.3976,-104 625,-104 625,-104 625,-104 625,-143.7772 625,-143.7772"/>
<polygon fill="#000000" stroke="#000000" points="621.5001,-143.7772 625,-153.7772 628.5001,-143.7773 621.5001,-143.7772"/>
</g>
<!-- V1Module -->
<g id="node9" class="node">
<title>V1Module</title>
<polygon fill="#8dd3c7" stroke="#000000" points="744.1572,-258 741.1572,-262 720.1572,-262 717.1572,-258 667.8428,-258 667.8428,-222 744.1572,-222 744.1572,-258"/>
<text text-anchor="middle" x="706" y="-235.8" font-family="Times,serif" font-size="14.00" fill="#000000">V1Module</text>
</g>
<!-- UsersModule&#45;&gt;V1Module -->
<g id="edge9" class="edge">
<title>UsersModule&#45;&gt;V1Module</title>
<path fill="none" stroke="#000000" d="M345.0858,-122.0759C345.0858,-157.7964 345.0858,-234 345.0858,-234 345.0858,-234 657.7175,-234 657.7175,-234"/>
<polygon fill="#000000" stroke="#000000" points="657.7176,-237.5001 667.7175,-234 657.7175,-230.5001 657.7176,-237.5001"/>
</g>
<!-- AuthModule&#45;&gt;V1Module -->
<g id="edge7" class="edge">
<title>AuthModule&#45;&gt;V1Module</title>
<path fill="none" stroke="#000000" d="M279,-190.2921C279,-212.2057 279,-246 279,-246 279,-246 657.7308,-246 657.7308,-246"/>
<polygon fill="#000000" stroke="#000000" points="657.7309,-249.5001 667.7308,-246 657.7308,-242.5001 657.7309,-249.5001"/>
</g>
<!-- AuthService -->
<g id="node3" class="node">
<title>AuthService</title>
<ellipse fill="#fdb462" stroke="#000000" cx="215" cy="-104" rx="59.1083" ry="18"/>
<text text-anchor="middle" x="215" y="-99.8" font-family="Times,serif" font-size="14.00" fill="#000000">AuthService</text>
</g>
<!-- AuthService&#45;&gt;AuthModule -->
<g id="edge2" class="edge">
<title>AuthService&#45;&gt;AuthModule</title>
<path fill="none" stroke="#000000" d="M254.7652,-117.4346C254.7652,-117.4346 254.7652,-143.9572 254.7652,-143.9572"/>
<polygon fill="#000000" stroke="#000000" points="251.2653,-143.9571 254.7652,-153.9572 258.2653,-143.9572 251.2653,-143.9571"/>
</g>
<!-- JwtStrategy -->
<g id="node4" class="node">
<title>JwtStrategy</title>
<ellipse fill="#fdb462" stroke="#000000" cx="81" cy="-104" rx="56.7561" ry="18"/>
<text text-anchor="middle" x="81" y="-99.8" font-family="Times,serif" font-size="14.00" fill="#000000">JwtStrategy</text>
</g>
<!-- JwtStrategy&#45;&gt;AuthModule -->
<g id="edge3" class="edge">
<title>JwtStrategy&#45;&gt;AuthModule</title>
<path fill="none" stroke="#000000" d="M81,-122.2228C81,-142.3652 81,-172 81,-172 81,-172 225.0574,-172 225.0574,-172"/>
<polygon fill="#000000" stroke="#000000" points="225.0574,-175.5001 235.0574,-172 225.0573,-168.5001 225.0574,-175.5001"/>
</g>
<!-- TasksService -->
<g id="node5" class="node">
<title>TasksService</title>
<ellipse fill="#fdb462" stroke="#000000" cx="803" cy="-104" rx="62.5354" ry="18"/>
<text text-anchor="middle" x="803" y="-99.8" font-family="Times,serif" font-size="14.00" fill="#000000">TasksService</text>
</g>
<!-- TasksModule -->
<g id="node6" class="node">
<title>TasksModule</title>
<polygon fill="#8dd3c7" stroke="#000000" points="837.2064,-190 834.2064,-194 813.2064,-194 810.2064,-190 744.7936,-190 744.7936,-154 837.2064,-154 837.2064,-190"/>
<text text-anchor="middle" x="791" y="-167.8" font-family="Times,serif" font-size="14.00" fill="#000000">TasksModule</text>
</g>
<!-- TasksService&#45;&gt;TasksModule -->
<g id="edge4" class="edge">
<title>TasksService&#45;&gt;TasksModule</title>
<path fill="none" stroke="#000000" d="M791,-121.8662C791,-121.8662 791,-143.5422 791,-143.5422"/>
<polygon fill="#000000" stroke="#000000" points="787.5001,-143.5421 791,-153.5422 794.5001,-143.5422 787.5001,-143.5421"/>
</g>
<!-- TasksModule&#45;&gt;V1Module -->
<g id="edge8" class="edge">
<title>TasksModule&#45;&gt;V1Module</title>
<path fill="none" stroke="#000000" d="M744.5636,-172C724.7379,-172 706.0783,-172 706.0783,-172 706.0783,-172 706.0783,-211.7772 706.0783,-211.7772"/>
<polygon fill="#000000" stroke="#000000" points="702.5784,-211.7772 706.0783,-221.7772 709.5784,-211.7773 702.5784,-211.7772"/>
</g>
<!-- UsersService -->
<g id="node8" class="node">
<title>UsersService</title>
<ellipse fill="#fdb462" stroke="#000000" cx="492" cy="-172" rx="61.9519" ry="18"/>
<text text-anchor="middle" x="492" y="-167.8" font-family="Times,serif" font-size="14.00" fill="#000000">UsersService</text>
</g>
<!-- UsersService&#45;&gt;UsersModule -->
<g id="edge6" class="edge">
<title>UsersService&#45;&gt;UsersModule</title>
<path fill="none" stroke="#000000" d="M429.6991,-172C398.5486,-172 367.3981,-172 367.3981,-172 367.3981,-172 367.3981,-132.2228 367.3981,-132.2228"/>
<polygon fill="#000000" stroke="#000000" points="370.8982,-132.2227 367.3981,-122.2228 363.8982,-132.2228 370.8982,-132.2227"/>
</g>
</g>
</svg>
